<svg width="28" height="24" viewBox="0 0 28 24" fill="none" xmlns="http://www.w3.org/2000/svg">
<path d="M3.18595 9.23478C1.8487 6.89136 2.58741 3.92689 4.83591 2.61345C7.0844 1.30002 9.99122 2.13499 11.3285 4.47841L17.1985 14.7652C18.5358 17.1086 17.797 20.0731 15.5485 21.3865C13.3001 22.6999 10.3932 21.865 9.05598 19.5215L3.18595 9.23478Z" fill="url(#paint0_linear_2290_2172)"/>
<path d="M27.2349 6.6917C27.2349 9.32347 25.1345 11.4569 22.5435 11.4569C19.9525 11.4569 17.8521 9.32347 17.8521 6.6917C17.8521 4.05992 19.9525 1.92645 22.5435 1.92645C25.1345 1.92645 27.2349 4.05992 27.2349 6.6917Z" fill="url(#paint1_linear_2290_2172)"/>
<path d="M6.18921 23.0731H4.07432V0.958206H6.18921V8.70652C6.18921 10.0502 6.53738 11.2054 7.23372 12.1728C7.93005 13.1401 8.85856 13.7037 10.0193 13.7037C11.1801 13.7037 12.1086 13.1401 12.8049 12.1728C13.5012 11.2054 13.8494 10.0502 13.8494 8.70652V0.958206H15.9643V23.0731H13.8494V14.7423C13.8494 13.3986 13.5012 12.2434 12.8049 11.2761C12.1086 10.3088 11.1801 9.74524 10.0193 9.74524C8.85856 9.74524 7.93005 10.3088 7.23372 11.2761C6.53738 12.2434 6.18921 13.3986 6.18921 14.7423V23.0731Z" fill="url(#paint2_linear_2290_2179)"/>
<defs>
<linearGradient id="paint0_linear_2290_2172" x1="4.83591" y1="2.61345" x2="15.441" y2="21.0019" gradientUnits="userSpaceOnUse">
<stop stop-color="#1D71C0"/>
<stop offset="1" stop-color="#77D9AA"/>
</linearGradient>
</defs>
</svg>
